<?xml version="1.0" standalone="no"?>
<!DOCTYPE svg PUBLIC "-//W3C//DTD SVG 20010904//EN"
 "http://www.w3.org/TR/2001/REC-SVG-20010904/DTD/svg10.dtd">
<svg version="1.0" xmlns="http://www.w3.org/2000/svg"
 width="297.000000pt" height="211.000000pt" viewBox="0 0 297.000000 211.000000"
 preserveAspectRatio="xMidYMid meet">

<g transform="translate(0.000000,211.000000) scale(0.100000,-0.100000)"
fill="#000000" stroke="none">
<path d="M0 1055 l0 -1055 1485 0 1485 0 0 1055 0 1055 -1485 0 -1485 0 0
-1055z m2110 789 c52 -21 80 -66 80 -129 0 -42 -5 -52 -39 -86 -35 -35 -44
-39 -90 -39 -60 0 -91 17 -120 66 -40 68 -14 150 59 186 43 22 59 22 110 2z
m-1404 -299 c82 -63 65 -183 -33 -234 -77 -39 -183 35 -183 129 0 106 131 170
216 105z m992 -467 l-3 -493 -95 0 -95 0 -3 466 -2 466 56 12 c32 7 73 19 93
26 20 8 39 14 44 14 4 1 6 -221 5 -491z m265 473 c44 -28 61 -60 61 -112 0
-102 -98 -166 -188 -124 -91 43 -102 169 -20 234 34 27 108 28 147 2z m330 0
c43 -28 59 -58 60 -111 2 -101 -93 -165 -186 -127 -76 32 -104 144 -50 207 14
18 36 36 47 40 37 15 100 11 129 -9z m-1575 -741 c-3 -366 -6 -380 -66 -443
-65 -68 -291 -79 -358 -16 -36 33 -32 74 9 99 49 31 81 26 131 -20 46 -42 60
-48 73 -28 4 7 10 193 13 412 l5 400 88 22 c49 12 91 25 95 29 11 11 13 -98
10 -455z m1260 113 l-3 -338 -95 0 -95 0 -3 306 c-2 237 1 309 10 317 12 9
147 49 176 51 10 1 12 -69 10 -336z m523 310 c26 -12 59 -37 75 -58 l29 -38 4
-254 c2 -139 0 -264 -3 -278 -6 -24 -9 -25 -94 -25 -93 0 -108 5 -113 33 -4
18 -5 18 -30 -2 -53 -42 -174 -50 -239 -16 -54 28 -83 71 -88 130 -3 32 1 68
8 85 27 66 123 127 275 174 l70 22 3 67 c3 60 0 70 -22 92 -56 56 -146 18
-146 -62 0 -75 -95 -112 -155 -60 -54 46 -26 130 57 173 92 48 279 57 369 17z
m-1491 -240 c5 -249 5 -252 29 -277 35 -37 85 -35 134 5 l37 30 2 247 3 247
100 0 100 0 3 -300 c2 -164 1 -314 -3 -332 l-6 -34 -97 3 -97 3 -3 27 -3 27
-39 -24 c-119 -75 -270 -41 -335 76 -25 47 -25 48 -25 296 0 137 3 253 7 257
4 4 48 5 98 4 l90 -3 5 -252z"/>
<path d="M2322 881 c-33 -22 -65 -49 -71 -60 -20 -36 -13 -90 15 -117 29 -30
57 -27 105 8 28 21 29 24 29 115 0 51 -4 93 -8 93 -5 0 -36 -18 -70 -39z"/>
</g>
</svg>
